<?xml version="1.0" encoding="UTF-8"?>
<svg width="64" height="64" viewBox="0 0 64 64" fill="none" xmlns="http://www.w3.org/2000/svg">
    <circle cx="32" cy="32" r="24" fill="#2481cc" fill-opacity="0.1"/>
    <path d="M32 16C32 16 40 24 40 32C40 40 36 48 32 48C28 48 24 40 24 32C24 24 32 16 32 16Z" fill="#2481cc"/>
    <path d="M32 16C32 16 36 20 36 24C36 28 32 32 32 32C32 32 28 28 28 24C28 20 32 16 32 16Z" fill="#2481cc" fill-opacity="0.7"/>
    <path d="M32 32C32 32 36 36 36 40C36 44 32 48 32 48C28 48 24 44 24 40C24 36 28 32 32 32Z" fill="#2481cc" fill-opacity="0.5"/>
</svg> 