<?xml version="1.0" encoding="UTF-8"?>
<svg width="24" height="24" viewBox="0 0 24 24" fill="none" xmlns="http://www.w3.org/2000/svg">
    <path d="M12 2C6.48 2 2 6.48 2 12C2 17.52 6.48 22 12 22C17.52 22 22 17.52 22 12C22 6.48 17.52 2 12 2ZM16.64 8.8C16.49 10.38 15.84 14.22 15.51 16.01C15.37 16.75 15.09 16.99 14.83 17.02C14.25 17.07 13.81 16.64 13.25 16.27C12.37 15.69 11.87 15.33 11.02 14.77C10.03 14.12 10.67 13.76 11.24 13.18C11.39 13.03 13.95 10.7 14 10.49C14.01 10.46 14.01 10.36 13.9 10.3C13.79 10.24 13.73 10.27 13.66 10.29C13.55 10.33 12.18 11.24 9.51 12.97C8.98 13.27 8.51 13.42 8.1 13.41C7.63 13.39 6.76 13.2 6.14 13.04C5.37 12.84 4.8 12.73 4.85 12.37C4.88 12.17 5.19 11.97 5.75 11.77C9.49 10.3 11.62 9.47 12.11 9.29C13.31 8.78 13.69 8.62 14 8.62C14.08 8.62 14.28 8.65 14.38 8.73C14.46 8.79 14.49 8.87 14.49 8.94C14.49 9.01 14.52 9.1 14.52 9.17C14.52 9.24 14.54 9.32 14.54 9.39C14.54 9.46 14.56 9.54 14.56 9.61C14.56 9.68 14.58 9.76 14.58 9.83C14.58 9.9 14.6 9.98 14.6 10.05C14.6 10.12 14.62 10.2 14.62 10.27C14.62 10.34 14.64 10.42 14.64 10.49Z" fill="#0088CC"/>
</svg> 