<?xml version="1.0" encoding="UTF-8"?>
<svg width="24" height="24" viewBox="0 0 24 24" fill="none" xmlns="http://www.w3.org/2000/svg">
    <path d="M12 2C6.48 2 2 6.48 2 12C2 17.52 6.48 22 12 22C17.52 22 22 17.52 22 12C22 6.48 17.52 2 12 2ZM16.5 11.5H15.5V8.5C15.5 8.22 15.28 8 15 8H9C8.72 8 8.5 8.22 8.5 8.5V11.5H7.5C7.22 11.5 7 11.72 7 12V15.5C7 15.78 7.22 16 7.5 16H8.5V19C8.5 19.28 8.72 19.5 9 19.5H15C15.28 19.5 15.5 19.28 15.5 19V16H16.5C16.78 16 17 15.78 17 15.5V12C17 11.72 16.78 11.5 16.5 11.5ZM14.5 18.5H9.5V12.5H14.5V18.5ZM16 15H15V12H16V15Z" fill="#0088CC"/>
</svg> 