<?xml version="1.0" encoding="UTF-8"?>
<svg width="64" height="64" viewBox="0 0 64 64" fill="none" xmlns="http://www.w3.org/2000/svg">
    <path d="M16 24C16 24 18 20 22 20C26 20 28 24 28 24C28 24 30 20 34 20C38 20 40 24 40 24C40 24 42 20 46 20C50 20 52 24 52 24C52 24 54 20 58 20C62 20 64 24 64 24C64 24 62 28 58 28C54 28 52 24 52 24C52 24 50 28 46 28C42 28 40 24 40 24C40 24 38 28 34 28C30 28 28 24 28 24C28 24 26 28 22 28C18 28 16 24 16 24Z" fill="#2481cc"/>
    <path d="M0 24C0 24 2 20 6 20C10 20 12 24 12 24C12 24 14 20 18 20C22 20 24 24 24 24C24 24 26 20 30 20C34 20 36 24 36 24C36 24 38 20 42 20C46 20 48 24 48 24C48 24 46 28 42 28C38 28 36 24 36 24C36 24 34 28 30 28C26 28 24 24 24 24C24 24 22 28 18 28C14 28 12 24 12 24C12 24 10 28 6 28C2 28 0 24 0 24Z" fill="#2481cc"/>
</svg> 